<mxfile host="app.diagrams.net" agent="Mozilla/5.0 (Windows NT 10.0; Win64; x64) AppleWebKit/537.36 (KHTML, like Gecko) Chrome/138.0.0.0 Safari/537.36" version="28.0.6">
  <diagram name="Page-1" id="9mKA3ghaUm_8dy2mrEUt">
    <mxGraphModel dx="1358" dy="708" grid="1" gridSize="10" guides="1" tooltips="1" connect="1" arrows="1" fold="1" page="1" pageScale="1" pageWidth="3300" pageHeight="2339" math="0" shadow="0">
      <root>
        <mxCell id="0" />
        <mxCell id="1" parent="0" />
        <mxCell id="v40oaSbYFe39OrbgkEy_-20" value="" style="rounded=0;whiteSpace=wrap;html=1;direction=south;dashed=1;" parent="1" vertex="1">
          <mxGeometry x="2560" y="704.75" width="360" height="855.25" as="geometry" />
        </mxCell>
        <mxCell id="v40oaSbYFe39OrbgkEy_-14" style="edgeStyle=orthogonalEdgeStyle;rounded=0;orthogonalLoop=1;jettySize=auto;html=1;" parent="1" source="v40oaSbYFe39OrbgkEy_-3" edge="1">
          <mxGeometry relative="1" as="geometry">
            <mxPoint x="870" y="1050" as="targetPoint" />
          </mxGeometry>
        </mxCell>
        <mxCell id="v40oaSbYFe39OrbgkEy_-3" value="" style="rounded=0;whiteSpace=wrap;html=1;direction=south;dashed=1;" parent="1" vertex="1">
          <mxGeometry x="544" y="889.5" width="190" height="320.5" as="geometry" />
        </mxCell>
        <mxCell id="v40oaSbYFe39OrbgkEy_-1" value="" style="rounded=0;whiteSpace=wrap;html=1;direction=south;dashed=1;" parent="1" vertex="1">
          <mxGeometry x="270" y="889.5" width="190" height="320.5" as="geometry" />
        </mxCell>
        <mxCell id="ulrNdj17T0uwtlCz0OL2-1" value="OMS" style="ellipse;shape=umlEntity;whiteSpace=wrap;html=1;" parent="1" vertex="1">
          <mxGeometry x="140" y="120" width="80" height="80" as="geometry" />
        </mxCell>
        <mxCell id="ulrNdj17T0uwtlCz0OL2-22" value="&lt;b&gt;&lt;font style=&quot;font-size: 15px;&quot;&gt;Client&lt;/font&gt;&lt;/b&gt;" style="sketch=0;outlineConnect=0;fontColor=#232F3E;gradientColor=none;strokeColor=#232F3E;fillColor=#ffffff;dashed=0;verticalLabelPosition=bottom;verticalAlign=top;align=center;html=1;fontSize=12;fontStyle=0;aspect=fixed;shape=mxgraph.aws4.resourceIcon;resIcon=mxgraph.aws4.client;" parent="1" vertex="1">
          <mxGeometry x="330" y="939" width="60" height="60" as="geometry" />
        </mxCell>
        <mxCell id="ulrNdj17T0uwtlCz0OL2-23" value="&lt;font style=&quot;font-size: 15px;&quot;&gt;&lt;b&gt;Mobile client&lt;/b&gt;&lt;/font&gt;" style="sketch=0;outlineConnect=0;fontColor=#232F3E;gradientColor=none;strokeColor=#232F3E;fillColor=#ffffff;dashed=0;verticalLabelPosition=bottom;verticalAlign=top;align=center;html=1;fontSize=12;fontStyle=0;aspect=fixed;shape=mxgraph.aws4.resourceIcon;resIcon=mxgraph.aws4.mobile_client;" parent="1" vertex="1">
          <mxGeometry x="330" y="1096" width="60" height="60" as="geometry" />
        </mxCell>
        <mxCell id="ulrNdj17T0uwtlCz0OL2-24" value="" style="sketch=0;points=[[0,0,0],[0.25,0,0],[0.5,0,0],[0.75,0,0],[1,0,0],[0,1,0],[0.25,1,0],[0.5,1,0],[0.75,1,0],[1,1,0],[0,0.25,0],[0,0.5,0],[0,0.75,0],[1,0.25,0],[1,0.5,0],[1,0.75,0]];outlineConnect=0;fontColor=#232F3E;fillColor=#E7157B;strokeColor=#ffffff;dashed=0;verticalLabelPosition=bottom;verticalAlign=top;align=center;html=1;fontSize=12;fontStyle=0;aspect=fixed;shape=mxgraph.aws4.resourceIcon;resIcon=mxgraph.aws4.api_gateway;" parent="1" vertex="1">
          <mxGeometry x="600" y="1006" width="78" height="78" as="geometry" />
        </mxCell>
        <mxCell id="ulrNdj17T0uwtlCz0OL2-28" value="&lt;b&gt;&lt;font style=&quot;font-size: 15px;&quot;&gt;API Gateway&lt;br&gt;Spring Cloud Gateway&lt;/font&gt;&lt;/b&gt;" style="text;html=1;align=center;verticalAlign=middle;resizable=0;points=[];autosize=1;strokeColor=none;fillColor=none;" parent="1" vertex="1">
          <mxGeometry x="549" y="1086" width="180" height="50" as="geometry" />
        </mxCell>
        <mxCell id="ulrNdj17T0uwtlCz0OL2-29" value="" style="endArrow=classic;html=1;rounded=0;entryX=0;entryY=0.5;entryDx=0;entryDy=0;entryPerimeter=0;" parent="1" source="ulrNdj17T0uwtlCz0OL2-22" target="ulrNdj17T0uwtlCz0OL2-24" edge="1">
          <mxGeometry width="50" height="50" relative="1" as="geometry">
            <mxPoint x="1190" y="1206" as="sourcePoint" />
            <mxPoint x="1240" y="1156" as="targetPoint" />
          </mxGeometry>
        </mxCell>
        <mxCell id="ulrNdj17T0uwtlCz0OL2-39" value="HTTP" style="edgeLabel;html=1;align=center;verticalAlign=middle;resizable=0;points=[];" parent="ulrNdj17T0uwtlCz0OL2-29" vertex="1" connectable="0">
          <mxGeometry x="-0.0546" y="1" relative="1" as="geometry">
            <mxPoint x="1" as="offset" />
          </mxGeometry>
        </mxCell>
        <mxCell id="ulrNdj17T0uwtlCz0OL2-30" value="" style="endArrow=classic;html=1;rounded=0;entryX=0;entryY=0.5;entryDx=0;entryDy=0;entryPerimeter=0;" parent="1" source="ulrNdj17T0uwtlCz0OL2-23" target="ulrNdj17T0uwtlCz0OL2-24" edge="1">
          <mxGeometry width="50" height="50" relative="1" as="geometry">
            <mxPoint x="1190" y="1206" as="sourcePoint" />
            <mxPoint x="1240" y="1156" as="targetPoint" />
          </mxGeometry>
        </mxCell>
        <mxCell id="ulrNdj17T0uwtlCz0OL2-40" value="HTTP" style="edgeLabel;html=1;align=center;verticalAlign=middle;resizable=0;points=[];" parent="ulrNdj17T0uwtlCz0OL2-30" vertex="1" connectable="0">
          <mxGeometry x="-0.0359" relative="1" as="geometry">
            <mxPoint as="offset" />
          </mxGeometry>
        </mxCell>
        <mxCell id="ulrNdj17T0uwtlCz0OL2-56" value="" style="sketch=0;points=[[0,0,0],[0.25,0,0],[0.5,0,0],[0.75,0,0],[1,0,0],[0,1,0],[0.25,1,0],[0.5,1,0],[0.75,1,0],[1,1,0],[0,0.25,0],[0,0.5,0],[0,0.75,0],[1,0.25,0],[1,0.5,0],[1,0.75,0]];outlineConnect=0;fontColor=#232F3E;fillColor=#C925D1;strokeColor=#ffffff;dashed=0;verticalLabelPosition=bottom;verticalAlign=top;align=center;html=1;fontSize=12;fontStyle=0;aspect=fixed;shape=mxgraph.aws4.resourceIcon;resIcon=mxgraph.aws4.rds;" parent="1" vertex="1">
          <mxGeometry x="2701" y="977.25" width="78" height="78" as="geometry" />
        </mxCell>
        <mxCell id="ulrNdj17T0uwtlCz0OL2-59" value="SQL Database&lt;br&gt;MySQL" style="text;html=1;align=center;verticalAlign=middle;resizable=0;points=[];autosize=1;strokeColor=none;fillColor=none;fontSize=15;fontStyle=1" parent="1" vertex="1">
          <mxGeometry x="2680" y="1050.25" width="120" height="50" as="geometry" />
        </mxCell>
        <mxCell id="ulrNdj17T0uwtlCz0OL2-61" value="" style="sketch=0;points=[[0,0,0],[0.25,0,0],[0.5,0,0],[0.75,0,0],[1,0,0],[0,1,0],[0.25,1,0],[0.5,1,0],[0.75,1,0],[1,1,0],[0,0.25,0],[0,0.5,0],[0,0.75,0],[1,0.25,0],[1,0.5,0],[1,0.75,0]];outlineConnect=0;fontColor=#232F3E;fillColor=#7AA116;strokeColor=#ffffff;dashed=0;verticalLabelPosition=bottom;verticalAlign=top;align=center;html=1;fontSize=12;fontStyle=0;aspect=fixed;shape=mxgraph.aws4.resourceIcon;resIcon=mxgraph.aws4.s3;" parent="1" vertex="1">
          <mxGeometry x="2701" y="1346.5" width="78" height="78" as="geometry" />
        </mxCell>
        <mxCell id="ulrNdj17T0uwtlCz0OL2-62" value="Blob Storage&lt;br&gt;(S3)" style="text;html=1;align=center;verticalAlign=middle;resizable=0;points=[];autosize=1;strokeColor=none;fillColor=none;fontSize=15;fontStyle=1" parent="1" vertex="1">
          <mxGeometry x="2685" y="1419.5" width="110" height="50" as="geometry" />
        </mxCell>
        <mxCell id="ulrNdj17T0uwtlCz0OL2-63" value="" style="sketch=0;points=[[0,0,0],[0.25,0,0],[0.5,0,0],[0.75,0,0],[1,0,0],[0,1,0],[0.25,1,0],[0.5,1,0],[0.75,1,0],[1,1,0],[0,0.25,0],[0,0.5,0],[0,0.75,0],[1,0.25,0],[1,0.5,0],[1,0.75,0]];outlineConnect=0;fontColor=#232F3E;fillColor=#C925D1;strokeColor=#ffffff;dashed=0;verticalLabelPosition=bottom;verticalAlign=top;align=center;html=1;fontSize=12;fontStyle=0;aspect=fixed;shape=mxgraph.aws4.resourceIcon;resIcon=mxgraph.aws4.memorydb_for_redis;" parent="1" vertex="1">
          <mxGeometry x="2701" y="1156.5" width="78" height="78" as="geometry" />
        </mxCell>
        <mxCell id="ulrNdj17T0uwtlCz0OL2-64" value="Cache&lt;br&gt;Redis" style="text;html=1;align=center;verticalAlign=middle;resizable=0;points=[];autosize=1;strokeColor=none;fillColor=none;fontSize=15;fontStyle=1" parent="1" vertex="1">
          <mxGeometry x="2705" y="1229.5" width="70" height="50" as="geometry" />
        </mxCell>
        <mxCell id="ulrNdj17T0uwtlCz0OL2-65" value="" style="sketch=0;points=[[0,0,0],[0.25,0,0],[0.5,0,0],[0.75,0,0],[1,0,0],[0,1,0],[0.25,1,0],[0.5,1,0],[0.75,1,0],[1,1,0],[0,0.25,0],[0,0.5,0],[0,0.75,0],[1,0.25,0],[1,0.5,0],[1,0.75,0]];outlineConnect=0;fontColor=#232F3E;fillColor=#C925D1;strokeColor=#ffffff;dashed=0;verticalLabelPosition=bottom;verticalAlign=top;align=center;html=1;fontSize=12;fontStyle=0;aspect=fixed;shape=mxgraph.aws4.resourceIcon;resIcon=mxgraph.aws4.documentdb_with_mongodb_compatibility;" parent="1" vertex="1">
          <mxGeometry x="2701" y="782.5" width="78" height="78" as="geometry" />
        </mxCell>
        <mxCell id="ulrNdj17T0uwtlCz0OL2-68" value="NoSQL Database&lt;div&gt;MongoDB&lt;/div&gt;" style="text;html=1;align=center;verticalAlign=middle;resizable=0;points=[];autosize=1;strokeColor=none;fillColor=none;fontSize=15;fontStyle=1" parent="1" vertex="1">
          <mxGeometry x="2670" y="855.5" width="140" height="50" as="geometry" />
        </mxCell>
        <mxCell id="v40oaSbYFe39OrbgkEy_-2" value="&lt;font style=&quot;font-size: 15px;&quot;&gt;&lt;b&gt;ACCESS LAYER&lt;/b&gt;&lt;/font&gt;" style="text;html=1;align=center;verticalAlign=middle;resizable=0;points=[];autosize=1;strokeColor=#b85450;fillColor=#f8cecc;" parent="1" vertex="1">
          <mxGeometry x="290" y="840" width="140" height="30" as="geometry" />
        </mxCell>
        <mxCell id="v40oaSbYFe39OrbgkEy_-4" value="&lt;font style=&quot;font-size: 16px;&quot;&gt;&lt;b&gt;INTERFACE LAYER&lt;/b&gt;&lt;/font&gt;" style="text;html=1;align=center;verticalAlign=middle;resizable=0;points=[];autosize=1;strokeColor=#82b366;fillColor=#d5e8d4;" parent="1" vertex="1">
          <mxGeometry x="554" y="840" width="170" height="30" as="geometry" />
        </mxCell>
        <mxCell id="v40oaSbYFe39OrbgkEy_-13" value="" style="group" parent="1" vertex="1" connectable="0">
          <mxGeometry x="870" y="560" width="1500" height="1242" as="geometry" />
        </mxCell>
        <mxCell id="v40oaSbYFe39OrbgkEy_-9" value="" style="group;dashed=1;" parent="v40oaSbYFe39OrbgkEy_-13" vertex="1" connectable="0">
          <mxGeometry y="52" width="1500" height="1190" as="geometry" />
        </mxCell>
        <mxCell id="v40oaSbYFe39OrbgkEy_-6" value="" style="rounded=0;whiteSpace=wrap;html=1;direction=south;dashed=1;" parent="v40oaSbYFe39OrbgkEy_-9" vertex="1">
          <mxGeometry width="1500" height="1110" as="geometry" />
        </mxCell>
        <mxCell id="v40oaSbYFe39OrbgkEy_-8" value="" style="image;sketch=0;aspect=fixed;html=1;points=[];align=center;fontSize=12;image=img/lib/mscae/Docker.svg;" parent="v40oaSbYFe39OrbgkEy_-9" vertex="1">
          <mxGeometry x="1390" y="28" width="50" height="41" as="geometry" />
        </mxCell>
        <mxCell id="v40oaSbYFe39OrbgkEy_-12" value="" style="group" parent="v40oaSbYFe39OrbgkEy_-9" vertex="1" connectable="0">
          <mxGeometry x="520" y="168" width="550" height="700" as="geometry" />
        </mxCell>
        <mxCell id="v40oaSbYFe39OrbgkEy_-69" value="" style="rounded=0;whiteSpace=wrap;html=1;direction=south;dashed=1;" parent="v40oaSbYFe39OrbgkEy_-12" vertex="1">
          <mxGeometry x="-70" y="-60" width="560" height="760" as="geometry" />
        </mxCell>
        <mxCell id="ulrNdj17T0uwtlCz0OL2-2" value="&lt;br&gt;&lt;span&gt;Order Service&lt;/span&gt;" style="html=1;dropTarget=0;whiteSpace=wrap;fontSize=15;fontStyle=1" parent="v40oaSbYFe39OrbgkEy_-12" vertex="1">
          <mxGeometry x="239" width="180" height="90" as="geometry" />
        </mxCell>
        <mxCell id="ulrNdj17T0uwtlCz0OL2-3" value="" style="shape=module;jettyWidth=8;jettyHeight=4;" parent="ulrNdj17T0uwtlCz0OL2-2" vertex="1">
          <mxGeometry x="1" width="20" height="20" relative="1" as="geometry">
            <mxPoint x="-30" y="10" as="offset" />
          </mxGeometry>
        </mxCell>
        <mxCell id="ulrNdj17T0uwtlCz0OL2-4" value="&lt;br&gt;&lt;span&gt;Customer Service&lt;/span&gt;" style="html=1;dropTarget=0;whiteSpace=wrap;fontSize=15;fontStyle=1" parent="v40oaSbYFe39OrbgkEy_-12" vertex="1">
          <mxGeometry width="180" height="90" as="geometry" />
        </mxCell>
        <mxCell id="ulrNdj17T0uwtlCz0OL2-5" value="" style="shape=module;jettyWidth=8;jettyHeight=4;" parent="ulrNdj17T0uwtlCz0OL2-4" vertex="1">
          <mxGeometry x="1" width="20" height="20" relative="1" as="geometry">
            <mxPoint x="-27" y="7" as="offset" />
          </mxGeometry>
        </mxCell>
        <mxCell id="ulrNdj17T0uwtlCz0OL2-6" value="&lt;br&gt;&lt;span&gt;Product CatalogService&lt;/span&gt;" style="html=1;dropTarget=0;whiteSpace=wrap;fontSize=15;fontStyle=1" parent="v40oaSbYFe39OrbgkEy_-12" vertex="1">
          <mxGeometry y="120" width="180" height="90" as="geometry" />
        </mxCell>
        <mxCell id="ulrNdj17T0uwtlCz0OL2-7" value="" style="shape=module;jettyWidth=8;jettyHeight=4;" parent="ulrNdj17T0uwtlCz0OL2-6" vertex="1">
          <mxGeometry x="1" width="20" height="20" relative="1" as="geometry">
            <mxPoint x="-27" y="7" as="offset" />
          </mxGeometry>
        </mxCell>
        <mxCell id="ulrNdj17T0uwtlCz0OL2-8" value="&lt;br&gt;&lt;span&gt;InventoryService&lt;/span&gt;" style="html=1;dropTarget=0;whiteSpace=wrap;fontSize=15;fontStyle=1" parent="v40oaSbYFe39OrbgkEy_-12" vertex="1">
          <mxGeometry x="239" y="120" width="180" height="90" as="geometry" />
        </mxCell>
        <mxCell id="ulrNdj17T0uwtlCz0OL2-9" value="" style="shape=module;jettyWidth=8;jettyHeight=4;" parent="ulrNdj17T0uwtlCz0OL2-8" vertex="1">
          <mxGeometry x="1" width="20" height="20" relative="1" as="geometry">
            <mxPoint x="-27" y="7" as="offset" />
          </mxGeometry>
        </mxCell>
        <mxCell id="ulrNdj17T0uwtlCz0OL2-10" value="&lt;br&gt;&lt;span&gt;ProductionService&lt;/span&gt;" style="html=1;dropTarget=0;whiteSpace=wrap;fontSize=15;fontStyle=1" parent="v40oaSbYFe39OrbgkEy_-12" vertex="1">
          <mxGeometry y="245" width="180" height="90" as="geometry" />
        </mxCell>
        <mxCell id="ulrNdj17T0uwtlCz0OL2-11" value="" style="shape=module;jettyWidth=8;jettyHeight=4;" parent="ulrNdj17T0uwtlCz0OL2-10" vertex="1">
          <mxGeometry x="1" width="20" height="20" relative="1" as="geometry">
            <mxPoint x="-27" y="7" as="offset" />
          </mxGeometry>
        </mxCell>
        <mxCell id="ulrNdj17T0uwtlCz0OL2-12" value="&lt;br&gt;&lt;span&gt;Supplier Service&lt;/span&gt;" style="html=1;dropTarget=0;whiteSpace=wrap;fontSize=15;fontStyle=1" parent="v40oaSbYFe39OrbgkEy_-12" vertex="1">
          <mxGeometry x="239" y="250.5" width="180" height="90" as="geometry" />
        </mxCell>
        <mxCell id="ulrNdj17T0uwtlCz0OL2-13" value="" style="shape=module;jettyWidth=8;jettyHeight=4;" parent="ulrNdj17T0uwtlCz0OL2-12" vertex="1">
          <mxGeometry x="1" width="20" height="20" relative="1" as="geometry">
            <mxPoint x="-27" y="7" as="offset" />
          </mxGeometry>
        </mxCell>
        <mxCell id="ulrNdj17T0uwtlCz0OL2-14" value="&lt;br&gt;&lt;span&gt;Shipping Service&lt;/span&gt;" style="html=1;dropTarget=0;whiteSpace=wrap;fontSize=15;fontStyle=1" parent="v40oaSbYFe39OrbgkEy_-12" vertex="1">
          <mxGeometry y="367" width="180" height="90" as="geometry" />
        </mxCell>
        <mxCell id="ulrNdj17T0uwtlCz0OL2-15" value="" style="shape=module;jettyWidth=8;jettyHeight=4;" parent="ulrNdj17T0uwtlCz0OL2-14" vertex="1">
          <mxGeometry x="1" width="20" height="20" relative="1" as="geometry">
            <mxPoint x="-27" y="7" as="offset" />
          </mxGeometry>
        </mxCell>
        <mxCell id="ulrNdj17T0uwtlCz0OL2-16" value="&lt;br&gt;&lt;span&gt;Billing Service&lt;/span&gt;" style="html=1;dropTarget=0;whiteSpace=wrap;fontSize=15;fontStyle=1" parent="v40oaSbYFe39OrbgkEy_-12" vertex="1">
          <mxGeometry x="235" y="371" width="180" height="90" as="geometry" />
        </mxCell>
        <mxCell id="ulrNdj17T0uwtlCz0OL2-17" value="" style="shape=module;jettyWidth=8;jettyHeight=4;" parent="ulrNdj17T0uwtlCz0OL2-16" vertex="1">
          <mxGeometry x="1" width="20" height="20" relative="1" as="geometry">
            <mxPoint x="-27" y="7" as="offset" />
          </mxGeometry>
        </mxCell>
        <mxCell id="v40oaSbYFe39OrbgkEy_-120" value="Payment Service" style="html=1;dropTarget=0;whiteSpace=wrap;fontSize=15;fontStyle=1" parent="v40oaSbYFe39OrbgkEy_-12" vertex="1">
          <mxGeometry x="235" y="500" width="180" height="90" as="geometry" />
        </mxCell>
        <mxCell id="v40oaSbYFe39OrbgkEy_-121" value="" style="shape=module;jettyWidth=8;jettyHeight=4;" parent="v40oaSbYFe39OrbgkEy_-120" vertex="1">
          <mxGeometry x="1" width="20" height="20" relative="1" as="geometry">
            <mxPoint x="-27" y="7" as="offset" />
          </mxGeometry>
        </mxCell>
        <mxCell id="v40oaSbYFe39OrbgkEy_-15" value="" style="rounded=0;whiteSpace=wrap;html=1;direction=south;dashed=1;" parent="v40oaSbYFe39OrbgkEy_-9" vertex="1">
          <mxGeometry x="110" y="286" width="250" height="372" as="geometry" />
        </mxCell>
        <mxCell id="v40oaSbYFe39OrbgkEy_-17" value="&lt;font style=&quot;font-size: 15px;&quot;&gt;&lt;b style=&quot;&quot;&gt;SERVICE COMMUNICATION&lt;/b&gt;&lt;/font&gt;" style="text;html=1;align=center;verticalAlign=middle;resizable=0;points=[];autosize=1;strokeColor=#6c8ebf;fillColor=#dae8fc;" parent="v40oaSbYFe39OrbgkEy_-9" vertex="1">
          <mxGeometry x="125" y="218" width="220" height="30" as="geometry" />
        </mxCell>
        <mxCell id="ulrNdj17T0uwtlCz0OL2-32" value="&lt;font style=&quot;font-size: 15px;&quot;&gt;&lt;b&gt;Async communication&lt;br&gt;Spring Apache Kafka&amp;nbsp;&lt;/b&gt;&lt;/font&gt;" style="text;html=1;align=center;verticalAlign=middle;resizable=0;points=[];autosize=1;strokeColor=none;fillColor=none;" parent="v40oaSbYFe39OrbgkEy_-9" vertex="1">
          <mxGeometry x="145" y="558" width="180" height="50" as="geometry" />
        </mxCell>
        <mxCell id="ulrNdj17T0uwtlCz0OL2-54" value="" style="image;aspect=fixed;html=1;points=[];align=center;fontSize=12;image=img/lib/azure2/compute/Azure_Spring_Cloud.svg;" parent="v40oaSbYFe39OrbgkEy_-9" vertex="1">
          <mxGeometry x="207" y="318" width="68" height="68" as="geometry" />
        </mxCell>
        <mxCell id="ulrNdj17T0uwtlCz0OL2-55" value="&lt;font style=&quot;font-size: 15px;&quot;&gt;&lt;b&gt;Sync communication (REST)&lt;br&gt;Spring Cloud OpenFeign&lt;/b&gt;&lt;/font&gt;" style="text;html=1;align=center;verticalAlign=middle;resizable=0;points=[];autosize=1;strokeColor=none;fillColor=none;" parent="v40oaSbYFe39OrbgkEy_-9" vertex="1">
          <mxGeometry x="120" y="380" width="230" height="50" as="geometry" />
        </mxCell>
        <mxCell id="v40oaSbYFe39OrbgkEy_-18" value="" style="rounded=0;whiteSpace=wrap;html=1;direction=south;dashed=1;" parent="v40oaSbYFe39OrbgkEy_-9" vertex="1">
          <mxGeometry x="1120" y="200" width="250" height="850" as="geometry" />
        </mxCell>
        <mxCell id="v40oaSbYFe39OrbgkEy_-19" value="&lt;font style=&quot;font-size: 15px;&quot;&gt;&lt;b&gt;SERVICE ADMINISTRATION&lt;/b&gt;&lt;/font&gt;" style="text;html=1;align=center;verticalAlign=middle;resizable=0;points=[];autosize=1;strokeColor=#6c8ebf;fillColor=#dae8fc;" parent="v40oaSbYFe39OrbgkEy_-9" vertex="1">
          <mxGeometry x="1135" y="138" width="220" height="30" as="geometry" />
        </mxCell>
        <mxCell id="ulrNdj17T0uwtlCz0OL2-48" value="Config Server&lt;div&gt;Spring Cloud Config&amp;nbsp;&lt;/div&gt;" style="text;html=1;align=center;verticalAlign=middle;resizable=0;points=[];autosize=1;strokeColor=none;fillColor=none;fontSize=15;fontStyle=1" parent="v40oaSbYFe39OrbgkEy_-9" vertex="1">
          <mxGeometry x="1165" y="471" width="160" height="50" as="geometry" />
        </mxCell>
        <mxCell id="ulrNdj17T0uwtlCz0OL2-49" value="" style="sketch=0;points=[[0,0,0],[0.25,0,0],[0.5,0,0],[0.75,0,0],[1,0,0],[0,1,0],[0.25,1,0],[0.5,1,0],[0.75,1,0],[1,1,0],[0,0.25,0],[0,0.5,0],[0,0.75,0],[1,0.25,0],[1,0.5,0],[1,0.75,0]];points=[[0,0,0],[0.25,0,0],[0.5,0,0],[0.75,0,0],[1,0,0],[0,1,0],[0.25,1,0],[0.5,1,0],[0.75,1,0],[1,1,0],[0,0.25,0],[0,0.5,0],[0,0.75,0],[1,0.25,0],[1,0.5,0],[1,0.75,0]];outlineConnect=0;fontColor=#232F3E;fillColor=#E7157B;strokeColor=#ffffff;dashed=0;verticalLabelPosition=bottom;verticalAlign=top;align=center;html=1;fontSize=12;fontStyle=0;aspect=fixed;shape=mxgraph.aws4.resourceIcon;resIcon=mxgraph.aws4.app_config;" parent="v40oaSbYFe39OrbgkEy_-9" vertex="1">
          <mxGeometry x="1206" y="398" width="78" height="78" as="geometry" />
        </mxCell>
        <mxCell id="ulrNdj17T0uwtlCz0OL2-41" value="" style="image;aspect=fixed;perimeter=ellipsePerimeter;html=1;align=center;shadow=0;dashed=0;fontColor=#4277BB;labelBackgroundColor=default;fontSize=12;spacingTop=3;image=img/lib/ibm/infrastructure/service_discovery_configuration.svg;" parent="v40oaSbYFe39OrbgkEy_-9" vertex="1">
          <mxGeometry x="1215" y="560" width="60" height="60" as="geometry" />
        </mxCell>
        <mxCell id="ulrNdj17T0uwtlCz0OL2-44" value="Service Registry&lt;br&gt;Spring Cloud Netflix (Eureka)" style="text;html=1;align=center;verticalAlign=middle;resizable=0;points=[];autosize=1;strokeColor=none;fillColor=none;fontSize=15;fontStyle=1" parent="v40oaSbYFe39OrbgkEy_-9" vertex="1">
          <mxGeometry x="1135" y="619" width="220" height="50" as="geometry" />
        </mxCell>
        <mxCell id="ulrNdj17T0uwtlCz0OL2-69" value="" style="sketch=0;points=[[0,0,0],[0.25,0,0],[0.5,0,0],[0.75,0,0],[1,0,0],[0,1,0],[0.25,1,0],[0.5,1,0],[0.75,1,0],[1,1,0],[0,0.25,0],[0,0.5,0],[0,0.75,0],[1,0.25,0],[1,0.5,0],[1,0.75,0]];points=[[0,0,0],[0.25,0,0],[0.5,0,0],[0.75,0,0],[1,0,0],[0,1,0],[0.25,1,0],[0.5,1,0],[0.75,1,0],[1,1,0],[0,0.25,0],[0,0.5,0],[0,0.75,0],[1,0.25,0],[1,0.5,0],[1,0.75,0]];outlineConnect=0;fontColor=#232F3E;fillColor=#E7157B;strokeColor=#ffffff;dashed=0;verticalLabelPosition=bottom;verticalAlign=top;align=center;html=1;fontSize=12;fontStyle=0;aspect=fixed;shape=mxgraph.aws4.resourceIcon;resIcon=mxgraph.aws4.cloudwatch_2;" parent="v40oaSbYFe39OrbgkEy_-9" vertex="1">
          <mxGeometry x="1206" y="718" width="78" height="78" as="geometry" />
        </mxCell>
        <mxCell id="ulrNdj17T0uwtlCz0OL2-70" value="Monitoring Service&lt;div&gt;Spring Cloud Sleuth&lt;/div&gt;" style="text;html=1;align=center;verticalAlign=middle;resizable=0;points=[];autosize=1;strokeColor=none;fillColor=none;fontSize=15;fontStyle=1" parent="v40oaSbYFe39OrbgkEy_-9" vertex="1">
          <mxGeometry x="1165" y="791" width="160" height="50" as="geometry" />
        </mxCell>
        <mxCell id="ulrNdj17T0uwtlCz0OL2-50" value="" style="image;aspect=fixed;html=1;points=[];align=center;fontSize=12;image=img/lib/azure2/compute/Azure_Spring_Cloud.svg;" parent="v40oaSbYFe39OrbgkEy_-9" vertex="1">
          <mxGeometry x="1217" y="238" width="68" height="68" as="geometry" />
        </mxCell>
        <mxCell id="ulrNdj17T0uwtlCz0OL2-51" value="&lt;font style=&quot;font-size: 15px;&quot;&gt;&lt;b&gt;Auth Service&lt;br&gt;Spring Authorization Server&lt;/b&gt;&lt;/font&gt;" style="text;html=1;align=center;verticalAlign=middle;resizable=0;points=[];autosize=1;strokeColor=none;fillColor=none;" parent="v40oaSbYFe39OrbgkEy_-9" vertex="1">
          <mxGeometry x="1135" y="300" width="220" height="50" as="geometry" />
        </mxCell>
        <mxCell id="ulrNdj17T0uwtlCz0OL2-20" value="&lt;br&gt;&lt;span&gt;Notification Service&lt;/span&gt;" style="html=1;dropTarget=0;whiteSpace=wrap;fontSize=15;fontStyle=1" parent="v40oaSbYFe39OrbgkEy_-9" vertex="1">
          <mxGeometry x="520" y="669" width="180" height="90" as="geometry" />
        </mxCell>
        <mxCell id="ulrNdj17T0uwtlCz0OL2-21" value="" style="shape=module;jettyWidth=8;jettyHeight=4;" parent="ulrNdj17T0uwtlCz0OL2-20" vertex="1">
          <mxGeometry x="1" width="20" height="20" relative="1" as="geometry">
            <mxPoint x="-27" y="7" as="offset" />
          </mxGeometry>
        </mxCell>
        <mxCell id="v40oaSbYFe39OrbgkEy_-70" value="BUSINESS SERVICES" style="text;html=1;align=center;verticalAlign=middle;whiteSpace=wrap;rounded=0;fillColor=#dae8fc;strokeColor=#6c8ebf;fontSize=15;fontStyle=1" parent="v40oaSbYFe39OrbgkEy_-9" vertex="1">
          <mxGeometry x="630" y="48" width="200" height="30" as="geometry" />
        </mxCell>
        <mxCell id="v40oaSbYFe39OrbgkEy_-74" value="" style="image;aspect=fixed;html=1;points=[];align=center;fontSize=12;image=img/lib/azure2/compute/Azure_Spring_Cloud.svg;" parent="v40oaSbYFe39OrbgkEy_-9" vertex="1">
          <mxGeometry x="1217" y="898" width="68" height="68" as="geometry" />
        </mxCell>
        <mxCell id="v40oaSbYFe39OrbgkEy_-75" value="&lt;font style=&quot;font-size: 15px;&quot;&gt;&lt;b&gt;Failover Service&lt;br&gt;Spring Cloud Circuit Breaker&lt;/b&gt;&lt;/font&gt;" style="text;html=1;align=center;verticalAlign=middle;resizable=0;points=[];autosize=1;strokeColor=none;fillColor=none;" parent="v40oaSbYFe39OrbgkEy_-9" vertex="1">
          <mxGeometry x="1136" y="966" width="230" height="50" as="geometry" />
        </mxCell>
        <mxCell id="4x4J-JbgXhnB5drOO6AE-2" value="" style="points=[];aspect=fixed;html=1;align=center;shadow=0;dashed=0;fillColor=#FF6A00;strokeColor=none;shape=mxgraph.alibaba_cloud.kafka;" vertex="1" parent="v40oaSbYFe39OrbgkEy_-9">
          <mxGeometry x="206.6500000000001" y="497" width="56.699999999999996" height="42" as="geometry" />
        </mxCell>
        <mxCell id="v40oaSbYFe39OrbgkEy_-7" value="&lt;font style=&quot;font-size: 15px;&quot;&gt;&lt;b&gt;SERVICE LAYER&lt;/b&gt;&lt;/font&gt;" style="text;html=1;align=center;verticalAlign=middle;resizable=0;points=[];autosize=1;strokeColor=#6c8ebf;fillColor=#dae8fc;" parent="v40oaSbYFe39OrbgkEy_-13" vertex="1">
          <mxGeometry x="660" width="140" height="30" as="geometry" />
        </mxCell>
        <mxCell id="v40oaSbYFe39OrbgkEy_-22" value="PERSISTANCE LAYER" style="text;html=1;align=center;verticalAlign=middle;resizable=0;points=[];autosize=1;strokeColor=#d6b656;fillColor=#fff2cc;fontSize=16;fontStyle=1" parent="1" vertex="1">
          <mxGeometry x="2645" y="640" width="190" height="30" as="geometry" />
        </mxCell>
        <mxCell id="v40oaSbYFe39OrbgkEy_-23" style="edgeStyle=orthogonalEdgeStyle;rounded=0;orthogonalLoop=1;jettySize=auto;html=1;entryX=0.457;entryY=0.994;entryDx=0;entryDy=0;entryPerimeter=0;" parent="1" source="v40oaSbYFe39OrbgkEy_-6" target="v40oaSbYFe39OrbgkEy_-20" edge="1">
          <mxGeometry relative="1" as="geometry">
            <Array as="points">
              <mxPoint x="2465" y="1100" />
              <mxPoint x="2465" y="1096" />
            </Array>
          </mxGeometry>
        </mxCell>
        <mxCell id="v40oaSbYFe39OrbgkEy_-71" value="&lt;font&gt;Spring JPA&lt;/font&gt;" style="edgeLabel;html=1;align=center;verticalAlign=middle;resizable=0;points=[];fontSize=15;fontStyle=1" parent="v40oaSbYFe39OrbgkEy_-23" vertex="1" connectable="0">
          <mxGeometry x="0.0118" relative="1" as="geometry">
            <mxPoint as="offset" />
          </mxGeometry>
        </mxCell>
      </root>
    </mxGraphModel>
  </diagram>
</mxfile>
